<svg width="16" height="40" viewBox="0 0 16 40" fill="none" xmlns="http://www.w3.org/2000/svg">
<path d="M9 1C9 0.447715 8.55228 2.57461e-08 8 0C7.44772 -2.57461e-08 7 0.447715 7 1L9 1ZM7.29289 39.7071C7.68341 40.0976 8.31658 40.0976 8.7071 39.7071L15.0711 33.3431C15.4616 32.9526 15.4616 32.3195 15.0711 31.9289C14.6805 31.5384 14.0474 31.5384 13.6569 31.9289L8 37.5858L2.34314 31.9289C1.95262 31.5384 1.31945 31.5384 0.92893 31.9289C0.538405 32.3195 0.538405 32.9526 0.928929 33.3431L7.29289 39.7071ZM7 1L7 39L9 39L9 1L7 1Z" fill="black"/>
</svg>
