<svg width="18" height="18" viewBox="0 0 18 18" fill="none" xmlns="http://www.w3.org/2000/svg">
<path fill-rule="evenodd" clip-rule="evenodd" d="M18 9C18 13.9706 13.9706 18 9 18C4.02944 18 0 13.9706 0 9C0 4.02944 4.02944 0 9 0C13.9706 0 18 4.02944 18 9ZM6.02682 8.17556C5.12526 8.5692 4.1989 8.97366 3.35185 9.44024L3.35178 9.44031C2.90948 9.76414 3.4974 9.99319 4.0489 10.2081C4.13658 10.2422 4.22333 10.276 4.30488 10.3098C4.37275 10.3306 4.44176 10.3526 4.5117 10.3749C5.12507 10.5703 5.80903 10.7882 6.40451 10.4604C7.38272 9.89851 8.30587 9.24885 9.22832 8.59968C9.53054 8.38699 9.83268 8.17436 10.1367 7.96488C10.1509 7.95577 10.167 7.94535 10.1845 7.93397C10.4435 7.7661 11.0259 7.38859 10.8105 7.90877C10.301 8.46587 9.7554 8.95903 9.20679 9.45487C8.83706 9.78903 8.46598 10.1244 8.10372 10.4814C7.78821 10.7378 7.4606 11.2533 7.81389 11.6123C8.6276 12.1819 9.45404 12.7378 10.28 13.2933C10.5488 13.4741 10.8175 13.6548 11.0857 13.8359C11.5403 14.1989 12.2507 13.9053 12.3506 13.3382C12.3951 13.0773 12.4397 12.8164 12.4843 12.5555C12.7309 11.1138 12.9776 9.67152 13.1955 8.22505C13.2251 7.99817 13.2587 7.77129 13.2923 7.54429C13.3737 6.99412 13.4552 6.44328 13.4807 5.89015C13.415 5.33818 12.7458 5.45954 12.3733 5.58366C10.4588 6.31213 8.56352 7.09461 6.67569 7.89088C6.46184 7.98563 6.24506 8.08028 6.02682 8.17556Z" fill="black"/>
</svg>
