<svg width="19" height="19" viewBox="0 0 19 19" fill="none" xmlns="http://www.w3.org/2000/svg">
<path fill-rule="evenodd" clip-rule="evenodd" d="M12.7253 0.962524H7.19952C2.15647 0.962524 0.962402 2.1566 0.962402 7.19964V12.7254C0.962402 17.7685 2.15647 18.9625 7.19952 18.9625H12.7253C17.7683 18.9625 18.9624 17.7685 18.9624 12.7254V7.19964C18.9624 2.1566 17.7683 0.962524 12.7253 0.962524ZM15.304 6.67882C15.6978 6.67882 15.7867 6.88207 15.6978 7.16153C15.559 7.80201 14.4066 9.50097 14.0497 10.0272C13.9818 10.1272 13.9427 10.1848 13.9448 10.1848C13.805 10.4135 13.7542 10.5151 13.9448 10.7692C14.0137 10.8631 14.1597 11.0064 14.3266 11.1702C14.4983 11.3387 14.6921 11.5288 14.8467 11.7092C15.4056 12.3443 15.8375 12.8778 15.9518 13.2462C16.0535 13.6146 15.8756 13.8051 15.4945 13.8051H14.1861C13.8394 13.8051 13.6607 13.606 13.2797 13.1816C13.1164 12.9997 12.9159 12.7763 12.6491 12.5095C11.8742 11.76 11.5312 11.6584 11.3407 11.6584C11.0739 11.6584 10.9977 11.7219 10.9977 12.103V13.2843C10.9977 13.6019 10.8961 13.7924 10.0577 13.7924C8.67307 13.7924 7.13602 12.9541 6.05627 11.3916C4.4303 9.10508 3.9857 7.37748 3.9857 7.03451C3.9857 6.84396 4.04922 6.66612 4.4303 6.66612H5.7514C6.08168 6.66612 6.20871 6.80585 6.33574 7.17424C6.98359 9.04156 8.06333 10.6802 8.50793 10.6802C8.67307 10.6802 8.74929 10.604 8.74929 10.1848V8.25398C8.71793 7.70516 8.52688 7.46604 8.38521 7.28873C8.29734 7.17875 8.22847 7.09256 8.22847 6.97099C8.22847 6.81856 8.3555 6.66612 8.55874 6.66612H10.6166C10.8961 6.66612 10.9977 6.81856 10.9977 7.14883V9.75293C10.9977 10.0324 11.112 10.134 11.2009 10.134C11.3661 10.134 11.5058 10.0324 11.8107 9.72752C12.7507 8.67318 13.424 7.04721 13.424 7.04721C13.5129 6.85667 13.6653 6.67882 13.9956 6.67882H15.304Z" fill="black"/>
</svg>
