<svg width="18" height="18" viewBox="0 0 18 18" fill="none" xmlns="http://www.w3.org/2000/svg">
<path fill-rule="evenodd" clip-rule="evenodd" d="M0 9C0 13.9706 4.02944 18 9 18C13.9706 18 18 13.9706 18 9C18 4.02944 13.9706 0 9 0C4.02944 0 0 4.02944 0 9ZM14.6483 8.65556C14.6471 11.6056 12.2473 14.006 9.29665 14.0072H9.29444C8.39876 14.0069 7.51867 13.7822 6.737 13.3558L3.9 14.1L4.65923 11.3268C4.1909 10.5152 3.94447 9.59456 3.94487 8.65134C3.94604 5.70063 6.34681 3.3 9.2966 3.3C10.7282 3.30062 12.0719 3.85795 13.0823 4.86953C14.0927 5.88106 14.6489 7.22562 14.6483 8.65556Z" fill="black"/>
<path fill-rule="evenodd" clip-rule="evenodd" d="M5.18512 12.8286L6.86864 12.387L7.03107 12.4834C7.71401 12.8886 8.49686 13.1031 9.29504 13.1034H9.29684C11.7485 13.1034 13.7439 11.1079 13.7449 8.65526C13.7454 7.46671 13.2831 6.34916 12.4433 5.50838C11.6035 4.66759 10.4867 4.20433 9.29859 4.20392C6.84504 4.20392 4.84961 6.19917 4.84863 8.65166C4.84829 9.49214 5.08345 10.3107 5.52872 11.0189L5.63448 11.1872L5.18512 12.8286ZM11.8098 9.80778C11.9031 9.85285 11.9661 9.88329 11.993 9.92818C12.0264 9.98393 12.0264 10.2517 11.915 10.5641C11.8035 10.8764 11.2693 11.1615 11.0124 11.1999C10.782 11.2343 10.4905 11.2487 10.1702 11.1469C9.97595 11.0853 9.72689 11.003 9.40786 10.8652C8.15425 10.3239 7.30708 9.1089 7.14696 8.87927C7.13574 8.86318 7.1279 8.85193 7.12352 8.84608L7.12244 8.84464C7.05168 8.75022 6.57751 8.11757 6.57751 7.46279C6.57751 6.84684 6.88007 6.52399 7.01934 6.37538C7.02889 6.3652 7.03766 6.35584 7.04552 6.34726C7.16809 6.21338 7.31297 6.17991 7.40211 6.17991C7.49124 6.17991 7.58048 6.18074 7.65839 6.18465C7.66801 6.18513 7.67801 6.18507 7.68835 6.18501C7.76627 6.18456 7.86342 6.18399 7.95926 6.41419C7.99613 6.50278 8.05007 6.63412 8.10697 6.77264C8.22204 7.05278 8.34917 7.36229 8.37154 7.40708C8.40498 7.47402 8.42726 7.55208 8.38269 7.64136C8.376 7.65475 8.36981 7.66738 8.3639 7.67945C8.33042 7.7478 8.30579 7.79808 8.24897 7.86442C8.22663 7.89051 8.20354 7.91863 8.18045 7.94675C8.13444 8.00278 8.08844 8.0588 8.04839 8.0987C7.98145 8.16538 7.91176 8.23772 7.98976 8.3716C8.06776 8.50547 8.33613 8.94335 8.73366 9.29794C9.16098 9.67909 9.53238 9.84019 9.72063 9.92185C9.75739 9.93779 9.78717 9.95071 9.80902 9.96164C9.94269 10.0286 10.0207 10.0174 10.0987 9.92818C10.1767 9.83894 10.433 9.5377 10.5221 9.40385C10.6112 9.27003 10.7004 9.29232 10.823 9.33692C10.9456 9.38159 11.603 9.70505 11.7367 9.77198C11.7628 9.78505 11.7872 9.79684 11.8098 9.80778Z" fill="black"/>
</svg>
